<svg width="500" height="500" viewBox="0 0 500 500" fill="none" xmlns="http://www.w3.org/2000/svg">
<rect width="500" height="500" rx="100" fill="#EAE6DF"/>
<circle cx="362" cy="137" r="100" fill="#1A1917"/>
<circle cx="362" cy="362" r="100" fill="#1A1917"/>
<path d="M37 197C37 108.634 108.634 37 197 37V37C219.091 37 237 54.9086 237 77V187C237 214.614 214.614 237 187 237H77C54.9086 237 37 219.091 37 197V197Z" fill="#1A1917"/>
<path d="M37 362C37 306.772 81.7715 262 137 262H187C214.614 262 237 284.386 237 312V412C237 439.614 214.614 462 187 462H137C81.7715 462 37 417.228 37 362V362Z" fill="#1A1917"/>
</svg>
