<svg width="412" height="412" viewBox="0 0 412 412" fill="none" xmlns="http://www.w3.org/2000/svg">
<circle cx="312" cy="100" r="100" fill="#1A1917"/>
<circle cx="312" cy="312" r="100" fill="#1A1917"/>
<path d="M0 188.679C0 84.4746 84.4746 0 188.679 0V0C194.932 0 200 5.06847 200 11.3208V188C200 194.627 194.627 200 188 200H11.3208C5.06848 200 0 194.932 0 188.679V188.679Z" fill="#1A1917"/>
<path d="M0 312C0 256.772 44.7715 212 100 212H188C194.627 212 200 217.373 200 224V400C200 406.627 194.627 412 188 412H100C44.7715 412 0 367.228 0 312V312Z" fill="#1A1917"/>
</svg>
