<svg width="425" height="425" viewBox="0 0 425 425" fill="none" xmlns="http://www.w3.org/2000/svg">
<circle cx="325" cy="100" r="100" fill="#F0EDE9"/>
<circle cx="325" cy="325" r="100" fill="#F0EDE9"/>
<path d="M0 160C0 71.6344 71.6344 0 160 0V0C182.091 0 200 17.9086 200 40V150C200 177.614 177.614 200 150 200H40C17.9086 200 0 182.091 0 160V160Z" fill="#F0EDE9"/>
<path d="M0 325C0 269.772 44.7715 225 100 225H150C177.614 225 200 247.386 200 275V375C200 402.614 177.614 425 150 425H100C44.7715 425 0 380.228 0 325V325Z" fill="#F0EDE9"/>
</svg>
